# xmcd
#
# Track frame offsets:
#	150
#	9999
#	25349
#	37218
#	50811
#	65832
#	76853
#	90007
#	104453
#	113522
#	123923
#	134564
#	148065
#	160987
#	176995
#	196318
#	207715
#	224913
#
# Disc length: 3187 seconds
#
# Revision: 1
# Processed by: cddbd v1.5.2PL0 Copyright (c) Steve Scherf et al.
# Submitted via: audiograbber 1.83.01
#
DISCID=130c7112
DTITLE=LeDoux,Chris   - American Cowboy [CD1]
DYEAR=1994
DGENRE=Country
TTITLE0=Mighty Lucky Man
TTITLE1=The Bucking Machine
TTITLE2=Born To Follow Rodeo
TTITLE3=Bareback Jack
TTITLE4=I've Got To Be A Rodeo Man (1989 Version)
TTITLE5=Goin' And A Blowin'
TTITLE6=The Yellow Stud
TTITLE7=Cowboy In The Continental Suit
TTITLE8=Copenhagen
TTITLE9=Amarillo By Morning
TTITLE10=What More Could A Cowboy Need
TTITLE11=Too Tough To Die
TTITLE12=He Rides The Wild Horses
TTITLE13=When The Rodeo Comes To Town
TTITLE14=Night Rider's Lament
TTITLE15=So You Want To Be A Cowboy
TTITLE16=The Cowboy And The Hippie
TTITLE17=They Couldn't Understand My Cowboy Songs
EXTD=
EXTT0=
EXTT1=
EXTT2=
EXTT3=
EXTT4=
EXTT5=
EXTT6=
EXTT7=
EXTT8=
EXTT9=
EXTT10=
EXTT11=
EXTT12=
EXTT13=
EXTT14=
EXTT15=
EXTT16=
EXTT17=
PLAYORDER=
